# xmcd
#
# Track frame offsets: 
#        187
#        12395
#        27317
#        44037
#        59297
#        78100
#        92207
#        106435
#        118430
#        130455
#        144632
#
# Disc length: 2194 seconds
#
# Revision: 4
# Processed by: cddbd v1.5.2PL0 Copyright (c) Steve Scherf et al.
# Submitted via: ExactAudioCopyFreeDBPlugin 1.0
#
DISCID=a008900b
DTITLE=Nanci Griffith - Little Love Affairs
DYEAR=1988
DGENRE=Folk/Rock
TTITLE0=Anyone Can Be Somebody's Fool
TTITLE1=I Knew Love
TTITLE2=Nevermind
TTITLE3=Love Wore a Halo (Back Before the War)
TTITLE4=So Long Ago
TTITLE5=Gulf Coast Highway
TTITLE6=Little Love Affairs
TTITLE7=I Wish it Would Rain
TTITLE8=Outbound Plane
TTITLE9=I Would Change My Life
TTITLE10=Sweet Dreams Will Come
EXTD=
EXTT0=
EXTT1=
EXTT2=
EXTT3=
EXTT4=
EXTT5=
EXTT6=
EXTT7=
EXTT8=
EXTT9=
EXTT10=
PLAYORDER=
